<?xml version="1.0" encoding="utf-8"?>
<!-- Generator: Adobe Illustrator 26.0.0, SVG Export Plug-In . SVG Version: 6.00 Build 0)  -->
<svg version="1.1" id="Layer_1" xmlns="http://www.w3.org/2000/svg" xmlns:xlink="http://www.w3.org/1999/xlink" x="0px" y="0px"
	 viewBox="0 0 595.28 841.89" style="enable-background:new 0 0 595.28 841.89;" xml:space="preserve">
<style type="text/css">
	.st0{fill:#72942C;}
	.st1{fill:#C1D100;}
	.st2{fill:#95C11F;}
</style>
<path class="st0" d="M235.04,422.2c-8.46,0.37-36.7,1.62-54.84-16.6c-26.9-27.02-1.66-66.78-27.28-117.06
	c-9.3-18.24-21.56-30.54-29.62-37.59c16.9-3.82,51.82-9.09,88.36,6.46c60.16,25.6,104.64,99.08,83.74,136.38
	C280.87,419.71,238.17,422.06,235.04,422.2z"/>
<path class="st1" d="M349,379c-15.12,45.25-58.47,78.38-103,81c-5.77,0.34-35.8,2.11-58.82-13.32
	C208.8,430.29,225.66,415.01,238,403c26.01-25.34,39.19-38.46,48-61c0.82-2.1,16.08-42.4,5-73
	c-11.36-31.41-51.47-55.38-105.81-60.77c-0.06-0.08-0.12-0.15-0.19-0.23c9.96-1.5,68.64-9.35,117,31
	C336.62,267.88,367.73,322.95,349,379z"/>
<path class="st2" d="M286,342c-8.81,22.54-21.99,35.66-48,61c-12.34,12.01-29.2,27.29-50.82,43.68
	c-5.63-3.77-10.85-8.57-15.18-14.68c-16.21-22.84-10.72-50.63-10-54c8.8-41.33,49.32-46.46,59-80c5.04-17.45,2.55-45.42-35.81-89.77
	c54.34,5.39,94.45,29.36,105.81,60.77C302.08,299.6,286.82,339.9,286,342z"/>
</svg>
