<svg id="Layer_1" data-name="Layer 1" xmlns="http://www.w3.org/2000/svg" viewBox="0 0 405 405"><defs><style>.cls-1{fill:#fff;}.cls-2{fill:#068336;}</style></defs><path class="cls-1" d="M288,562.5c-2,0-3.79,0-5.49-.07a202.14,202.14,0,0,1-54.34-8.92,204.22,204.22,0,0,1-102.32-72.19A200.79,200.79,0,0,1,85.5,360c0-111.66,90.84-202.5,202.5-202.5S490.5,248.34,490.5,360a201,201,0,0,1-60.81,144.68A206.61,206.61,0,0,1,413,519.34c-4.18,3.27-8.48,6.38-12.8,9.26a202.38,202.38,0,0,1-29.88,16.46,198.75,198.75,0,0,1-27.6,10,201.12,201.12,0,0,1-35.21,6.56C301.05,562.19,294.49,562.5,288,562.5Zm0-396C181.3,166.5,94.5,253.3,94.5,360c0,85.42,54.79,159.73,136.33,184.91a193.08,193.08,0,0,0,51.93,8.52c1.62.05,3.33.07,5.24.07,6.2,0,12.48-.3,18.65-.89a192.63,192.63,0,0,0,33.64-6.26,190,190,0,0,0,26.36-9.51,193.64,193.64,0,0,0,28.55-15.72c4.14-2.76,8.26-5.74,12.25-8.86a197.19,197.19,0,0,0,15.94-14A192.09,192.09,0,0,0,481.5,360C481.5,253.3,394.7,166.5,288,166.5Z" transform="translate(-85.5 -157.5)"/><path class="cls-2" d="M405,360a117.05,117.05,0,0,1-44.78,92.06q-3.59,2.82-7.4,5.36a117,117,0,0,1-17.26,9.51,114.46,114.46,0,0,1-15.94,5.74,115.87,115.87,0,0,1-20.35,3.79c-3.71.36-7.46.54-11.27.54-1.06,0-2.12,0-3.17,0A117,117,0,1,1,405,360Z" transform="translate(-85.5 -157.5)"/><path class="cls-1" d="M330,507.47a149,149,0,0,1-26,4.84q-7.12.69-14.43.69c-1.35,0-2.7,0-4.05,0a149.29,149.29,0,0,1-40.18-6.6q-2.87-3.19-5.59-6.49c-33.32-40.21-50.84-91.07-44.33-143.3a189,189,0,0,1,25.9-74.93c-9.78,34.69-13.37,71.61-5.52,107,6.61,31.11,21.9,59.31,42.55,83.21-24.8-48.74-24.39-99.37-5.25-146.74h0q3.45-8.55,7.73-17a256.32,256.32,0,0,1,25.78-40.54,298.55,298.55,0,0,1,30-33.57c-7.53,12.92-14.76,25.85-21.21,39-9.5,19.43-17.56,39.67-22.62,60.63-.24,1-.47,2-.7,3a188.5,188.5,0,0,0-4.75,38.19c0,.7,0,1.39,0,2.08-.47,48.66,23,89.89,56.41,124.11Q326.7,504.31,330,507.47Z" transform="translate(-85.5 -157.5)"/><path class="cls-1" d="M394.24,470.26a151.24,151.24,0,0,1-12.34,10.83q-4.59,3.6-9.46,6.85a148.9,148.9,0,0,1-22.09,12.17c-1.56-1.45-3.1-2.9-4.63-4.38a324.68,324.68,0,0,1-53.58-66.87,311.07,311.07,0,0,1-19.46-38q-2.93-6.88-5.48-13.89-4.76-12.94-8.37-26.18Q255.4,338,253,325.1h0q-1.41-7.74-2.41-15.52A285.27,285.27,0,0,1,248.22,268c3.76,13.32,7.71,26.41,12.22,39.22.11.29.21.58.31.87,3.45,9.69,7.17,19.23,11.23,28.56,1.17,2.71,2.38,5.39,3.62,8.06A398.82,398.82,0,0,0,294,380.11l5.15,8.47c1.74,2.8,3.6,5.52,5.39,8.28l1.35,2.07.66,1,.72,1,2.84,4c1.92,2.66,3.73,5.4,5.77,8l5.94,7.81q3,3.86,6.19,7.61,6.29,7.53,13,14.69,7,7.56,14.47,14.71c-.46-1-.9-2.07-1.32-3.12q-2.1-5.12-3.83-10.37c-1.15-3.5-2.2-7-3.07-10.6-.45-1.78-.84-3.58-1.19-5.38s-.75-3.58-1.07-5.38l-.83-5.41c-.16-.89-.26-1.8-.35-2.71l-.28-2.71a157.14,157.14,0,0,1,1.74-42.85,176.41,176.41,0,0,1,12.25-40A265.8,265.8,0,0,0,355.42,370a192.82,192.82,0,0,0,1.79,19.81,154.27,154.27,0,0,0,18.57,54.45A168.9,168.9,0,0,0,394.24,470.26Z" transform="translate(-85.5 -157.5)"/></svg>